<svg width="215" height="46" viewBox="0 0 215 46" fill="none" xmlns="http://www.w3.org/2000/svg">
<g clip-path="url(#clip0_122_1185)">
<path d="M11.0532 16.99C9.723 16.3917 8.27232 16.0933 6.80833 16.1168C6.52718 16.1168 5.98692 16.1168 5.15449 16.1599C4.50949 16.203 3.86449 16.2246 3.24154 16.2246C2.83359 16.2246 2.27679 16.2246 1.58769 16.1814L0.369359 16.1707C0.270038 16.182 0.178439 16.2286 0.11196 16.3017C0.0454807 16.3747 0.00875316 16.4691 0.00875316 16.5668C0.00875316 16.6646 0.0454807 16.759 0.11196 16.832C0.178439 16.9051 0.270038 16.9517 0.369359 16.963C0.690854 16.9459 1.01304 16.9805 1.32308 17.0654C1.38963 17.0851 1.45087 17.119 1.50236 17.1647C1.55385 17.2104 1.5943 17.2667 1.62077 17.3296C1.70528 17.5962 1.74075 17.8755 1.72551 18.1543V27.9644C1.74298 28.249 1.70558 28.5342 1.61526 28.8053C1.59118 28.8681 1.5521 28.9243 1.50128 28.9693C1.45045 29.0143 1.38935 29.0468 1.32308 29.064C0.994575 29.1398 0.656913 29.1706 0.319744 29.1557C0.286667 29.1557 0 29.1557 0 29.5545C0 29.9534 0.286667 29.948 0.319744 29.948C0.871026 29.948 1.26795 29.948 1.56564 29.948H3.26359C3.70462 29.948 4.10705 29.948 4.45987 29.948L5.36397 29.9858C6.03654 30.0289 6.63192 30.0504 7.12808 30.0504C8.49127 30.0632 9.8382 29.7602 11.0587 29.1664C12.2335 28.5945 13.2251 27.7182 13.9254 26.6331C14.6422 25.5009 15.0115 24.1913 14.9894 22.8599C15.0061 21.6334 14.6471 20.4301 13.9585 19.4048C13.2331 18.3561 12.2285 17.5211 11.0532 16.99ZM4.82923 27.7219V18.1866C4.82923 17.529 5.11038 17.3942 5.2041 17.3511C5.79064 17.1485 6.41438 17.0695 7.03436 17.1193C7.89771 17.1082 8.73865 17.388 9.4159 17.9117C10.1432 18.496 10.6987 19.2586 11.0256 20.1217C11.411 21.135 11.598 22.2102 11.5769 23.2911C11.621 24.3579 11.4331 25.4216 11.0256 26.4121C10.683 27.2018 10.1071 27.8737 9.37179 28.3417C8.63291 28.7795 7.78238 29.0037 6.91859 28.9886C5.85462 28.9886 5.40808 28.8269 5.22064 28.6921C5.08169 28.5721 4.97378 28.4216 4.90575 28.253C4.83772 28.0843 4.8115 27.9023 4.82923 27.7219Z" fill="white"/>
<path d="M32.4648 16.1708H31.4229C30.8716 16.1977 30.4527 16.2139 30.1495 16.2139C29.8463 16.2139 29.4107 16.2139 28.9146 16.1708H27.9223C27.8892 16.1708 27.597 16.1708 27.597 16.5696C27.597 16.9685 27.8892 16.9631 27.9223 16.9631C28.1492 16.9505 28.3758 16.9931 28.5817 17.0872C28.7876 17.1812 28.9664 17.3238 29.102 17.5022C29.4247 17.9805 29.583 18.5469 29.5541 19.1192V25.291L22.0511 17.3458C21.9464 17.238 21.77 17.0224 21.4998 16.7044C21.3922 16.5683 21.2763 16.4387 21.1525 16.3163C21.0246 16.2077 20.8587 16.1517 20.6895 16.16C20.3752 16.16 20.1382 16.16 19.9066 16.16H18.1591C17.7842 16.16 17.503 16.16 17.2936 16.16H16.3233C16.2902 16.16 15.998 16.16 15.998 16.5589C15.998 16.9577 16.2902 16.9523 16.3233 16.9523C16.6875 16.9584 17.0441 17.0549 17.3597 17.2326C17.7642 17.4865 18.1346 17.7889 18.4623 18.1328V26.9781C18.4975 27.561 18.3132 28.1362 17.9441 28.5952C17.7671 28.7806 17.5501 28.9252 17.3088 29.0184C17.0676 29.1117 16.8082 29.1512 16.5493 29.1342C16.4992 29.136 16.45 29.1481 16.4049 29.1696C16.3599 29.1912 16.3199 29.2217 16.2877 29.2593C16.2555 29.2969 16.2317 29.3407 16.2179 29.3879C16.2041 29.435 16.2006 29.4845 16.2075 29.5331C16.2005 29.5814 16.204 29.6306 16.2179 29.6775C16.2317 29.7243 16.2556 29.7678 16.2879 29.805C16.3202 29.8422 16.3602 29.8722 16.4053 29.8932C16.4503 29.9142 16.4994 29.9255 16.5493 29.9266C17.051 29.9266 17.4314 29.9266 17.6519 29.9266H19.0687H20.298C20.5351 29.9266 20.8493 29.9266 21.3069 29.9266C21.34 29.9266 21.6266 29.9266 21.6266 29.5331C21.6266 29.1396 21.34 29.1342 21.3069 29.1342C21.0792 29.1468 20.8518 29.1042 20.6451 29.0102C20.4383 28.9161 20.2585 28.7736 20.1216 28.5952C19.7984 28.1173 19.6418 27.5501 19.6751 26.9781V19.4318L30.0502 30.25C30.1034 30.2944 30.1668 30.3254 30.235 30.3405C30.3032 30.3555 30.3741 30.354 30.4416 30.3362L30.7504 30.6273V19.1408C30.7203 18.566 30.885 17.9976 31.2189 17.5237C31.3622 17.3383 31.5495 17.1898 31.7647 17.0912C31.9799 16.9926 32.2164 16.9468 32.4538 16.9577C32.4869 16.9577 32.7736 16.9577 32.7736 16.5643C32.7736 16.1708 32.5255 16.1708 32.4648 16.1708Z" fill="white"/>
<path d="M38.3366 17.3404C38.3602 17.2747 38.3995 17.2154 38.4513 17.1676C38.5031 17.1198 38.5658 17.0847 38.6343 17.0655C38.9465 16.9722 39.2731 16.9338 39.599 16.9523C39.6984 16.9409 39.79 16.8943 39.8564 16.8213C39.9229 16.7482 39.9596 16.6539 39.9596 16.5561C39.9596 16.4583 39.9229 16.364 39.8564 16.2909C39.79 16.2179 39.6984 16.1713 39.599 16.1599H38.4193C37.7192 16.1869 37.1293 16.203 36.6607 16.203C36.1921 16.203 35.6684 16.203 34.9628 16.1599H33.7169C33.6617 16.1599 33.3916 16.1599 33.3916 16.5588C33.3916 16.9577 33.6838 16.9523 33.7169 16.9523C34.0511 16.9352 34.386 16.9697 34.7092 17.0547C34.7767 17.0737 34.8391 17.1072 34.8915 17.153C34.944 17.1987 34.9853 17.2554 35.0124 17.3188C35.0998 17.5849 35.1353 17.8646 35.1171 18.1435V27.9537C35.1352 28.2379 35.0997 28.5229 35.0124 28.7945C34.9866 28.8573 34.9463 28.9133 34.8947 28.9582C34.843 29.0031 34.7814 29.0356 34.7147 29.0533C34.3881 29.1296 34.0522 29.1604 33.7169 29.1449C33.6838 29.1449 33.3916 29.1449 33.3916 29.5438C33.3916 29.9427 33.6617 29.9373 33.7169 29.9373C34.2681 29.9373 34.6595 29.9373 34.9628 29.9373H36.6552H38.3917C38.6894 29.9373 39.0919 29.9373 39.6045 29.9373C39.6544 29.9362 39.7035 29.9249 39.7486 29.9039C39.7937 29.8829 39.8337 29.8529 39.866 29.8157C39.8983 29.7785 39.9221 29.735 39.936 29.6882C39.9498 29.6413 39.9534 29.5921 39.9463 29.5438C39.9533 29.4952 39.9498 29.4457 39.936 29.3986C39.9222 29.3514 39.8984 29.3076 39.8662 29.27C39.8339 29.2324 39.794 29.2019 39.7489 29.1803C39.7039 29.1588 39.6547 29.1467 39.6045 29.1449C39.2636 29.1639 38.9218 29.133 38.5902 29.0533C38.5273 29.0383 38.4692 29.0083 38.4211 28.9659C38.373 28.9236 38.3364 28.8703 38.3146 28.8107C38.2355 28.532 38.2039 28.2425 38.2208 27.9537V18.1866C38.212 17.9003 38.2511 17.6144 38.3366 17.3404Z" fill="white"/>
<path d="M51.2689 17.0438C50.1089 16.3567 48.7644 16.0262 47.41 16.0951C47.0075 16.0951 46.6492 16.0951 46.3405 16.0951L45.5687 16.1382C45.0725 16.1814 44.6425 16.2029 44.2842 16.2029C43.9259 16.2029 43.3139 16.2029 42.6304 16.1598H41.4065C41.3072 16.1711 41.2156 16.2178 41.1491 16.2908C41.0826 16.3638 41.0459 16.4582 41.0459 16.556C41.0459 16.6538 41.0826 16.7481 41.1491 16.8212C41.2156 16.8942 41.3072 16.9408 41.4065 16.9522C41.7334 16.9357 42.061 16.9703 42.3768 17.0546C42.4419 17.0724 42.5021 17.1045 42.5527 17.1484C42.6033 17.1922 42.643 17.2468 42.6689 17.3079C42.7468 17.5795 42.7785 17.8618 42.7627 18.1434V27.9536C42.7773 28.2408 42.7438 28.5285 42.6634 28.8052C42.6428 28.8651 42.6074 28.9192 42.5603 28.9624C42.5131 29.0057 42.4558 29.0369 42.3933 29.0532C42.0705 29.1294 41.7382 29.1603 41.4065 29.1448C41.3559 29.1458 41.3061 29.1574 41.2604 29.1786C41.2146 29.1998 41.174 29.2303 41.1412 29.268C41.1084 29.3057 41.0841 29.3497 41.07 29.3972C41.0559 29.4448 41.0522 29.4947 41.0592 29.5437C41.0521 29.5924 41.0558 29.6421 41.07 29.6893C41.0841 29.7366 41.1085 29.7803 41.1414 29.8176C41.1743 29.8549 41.215 29.8848 41.2607 29.9054C41.3064 29.9261 41.3561 29.9369 41.4065 29.9372C41.9578 29.9372 42.3492 29.9372 42.6524 29.9372H44.3062H46.3019C46.6547 29.9372 47.1509 29.9372 47.7848 29.9372C47.8347 29.9361 47.8838 29.9248 47.9289 29.9038C47.9739 29.8828 48.0139 29.8528 48.0462 29.8156C48.0786 29.7784 48.1024 29.7349 48.1163 29.6881C48.1301 29.6412 48.1337 29.592 48.1266 29.5437C48.1336 29.4951 48.1301 29.4456 48.1163 29.3985C48.1025 29.3513 48.0787 29.3075 48.0465 29.2699C48.0142 29.2323 47.9743 29.2018 47.9292 29.1802C47.8842 29.1587 47.835 29.1466 47.7848 29.1448C47.3279 29.1618 46.8706 29.1238 46.4232 29.0316C46.332 29.0147 46.2456 28.979 46.1695 28.927C46.0935 28.8749 46.0296 28.8077 45.9821 28.7298C45.8729 28.4574 45.8277 28.1645 45.8498 27.8727V18.1703C45.8498 17.5559 45.9546 17.3349 46.0207 17.2594C46.113 17.1897 46.2185 17.1385 46.3311 17.1089C46.4437 17.0793 46.5612 17.0718 46.6768 17.0869C47.0558 17.0592 47.4363 17.1178 47.7883 17.258C48.1403 17.3983 48.4543 17.6165 48.7055 17.8954C49.2232 18.5947 49.4747 19.4489 49.4166 20.3103C49.4702 21.1652 49.2444 22.0147 48.7716 22.7359C48.6015 22.9833 48.3717 23.186 48.1025 23.3261C47.8333 23.4661 47.533 23.5393 47.228 23.539C47.0061 23.5405 46.7845 23.5207 46.5665 23.4797C46.5272 23.4608 46.4844 23.4498 46.4406 23.4474C46.3969 23.4451 46.3531 23.4514 46.3119 23.466C46.2708 23.4806 46.233 23.5032 46.201 23.5324C46.1689 23.5616 46.1432 23.5969 46.1255 23.636C46.0825 23.7139 46.0598 23.8009 46.0593 23.8894C46.0471 23.9696 46.0657 24.0514 46.1115 24.1191C46.1573 24.1868 46.2271 24.2355 46.3074 24.2559C46.6693 24.3344 47.0392 24.3724 47.41 24.3691C48.263 24.3656 49.1072 24.2009 49.8962 23.884C50.6835 23.5756 51.3751 23.0722 51.9029 22.4232C52.4417 21.7385 52.7239 20.8937 52.7023 20.03C52.7421 19.4542 52.6314 18.878 52.3806 18.3556C52.1299 17.8332 51.7473 17.3818 51.2689 17.0438Z" fill="white"/>
<path d="M69.6043 29.1448C68.9534 29.1235 68.3254 28.905 67.8071 28.5195C66.982 27.8946 66.2411 27.1702 65.6019 26.3635C64.8522 25.4741 63.915 24.2613 62.8455 22.7466C63.4672 22.4022 64.0095 21.9361 64.4387 21.3775C64.9616 20.7031 65.2425 19.879 65.2381 19.0328C65.2461 18.587 65.1323 18.1471 64.9084 17.7587C64.6846 17.3702 64.3588 17.0471 63.9646 16.8228C62.9267 16.2723 61.7534 16.013 60.5743 16.0736C60.1994 16.0736 59.8631 16.0736 59.5599 16.0736L58.8046 16.1167C58.2534 16.1598 57.7021 16.1814 57.1949 16.1814C56.7814 16.1814 56.2246 16.1814 55.541 16.1382H54.3172C54.2841 16.1382 53.9975 16.1382 53.9975 16.5371C53.9975 16.936 54.2841 16.9306 54.3172 16.9306C54.6441 16.9141 54.9717 16.9487 55.2875 17.033C55.3526 17.0508 55.4128 17.0829 55.4634 17.1268C55.514 17.1707 55.5537 17.2252 55.5796 17.2864C55.658 17.5578 55.6897 17.8402 55.6734 18.1218V27.932C55.6914 28.2162 55.6559 28.5012 55.5686 28.7729C55.5449 28.8359 55.506 28.8924 55.4551 28.9374C55.4042 28.9825 55.3429 29.0148 55.2764 29.0316C54.9556 29.1084 54.6251 29.1393 54.2951 29.1232C54.2445 29.1243 54.1947 29.1358 54.149 29.157C54.1033 29.1783 54.0627 29.2087 54.0299 29.2464C53.9971 29.2841 53.9728 29.3282 53.9586 29.3757C53.9445 29.4232 53.9408 29.4731 53.9478 29.5221C53.9408 29.5709 53.9444 29.6205 53.9586 29.6678C53.9728 29.715 53.9972 29.7588 54.0301 29.796C54.063 29.8333 54.1036 29.8633 54.1494 29.8839C54.1951 29.9045 54.2448 29.9153 54.2951 29.9156C54.8464 29.9156 55.2378 29.9156 55.541 29.9156H57.1949H58.9314C59.2236 29.9156 59.6316 29.9156 60.1387 29.9156C60.1718 29.9156 60.464 29.9156 60.464 29.5221C60.464 29.1286 60.1718 29.1232 60.1387 29.1232C59.8088 29.1393 59.4783 29.1084 59.1575 29.0316C59.0942 29.0175 59.0356 28.9879 58.9874 28.9454C58.9391 28.9029 58.9028 28.8491 58.8818 28.7891C58.7996 28.5109 58.7661 28.2211 58.7826 27.932V23.5552H59.7749C59.9017 23.5552 60.034 23.5552 60.1608 23.5552C61.3901 25.4525 62.4652 26.9726 63.3527 28.0722C64.6813 29.7216 65.194 29.9426 65.5248 29.9426H69.6153C69.6484 29.9426 69.935 29.9426 69.935 29.5491C69.935 29.1556 69.6373 29.1448 69.6043 29.1448ZM58.7716 18.1865C58.7548 18.0324 58.7722 17.8765 58.8226 17.7295C58.873 17.5825 58.9553 17.4479 59.0637 17.3349C59.405 17.1343 59.8029 17.0455 60.1994 17.0815C60.4553 17.061 60.7125 17.0991 60.9508 17.1926C61.1891 17.2862 61.4018 17.4327 61.5721 17.6206C61.8973 18.0086 62.0627 18.7579 62.0627 19.8467C62.1198 20.5673 61.9255 21.2855 61.5114 21.8842C61.2893 22.1006 61.0207 22.2661 60.7252 22.3686C60.4296 22.4712 60.1145 22.5082 59.8025 22.4771C59.449 22.4793 59.0957 22.4631 58.744 22.4286L58.7716 18.1865Z" fill="white"/>
<path d="M81.4962 16.9036C80.2818 16.2381 78.9079 15.9014 77.516 15.928C76.1633 15.9249 74.8241 16.1909 73.5798 16.7096C72.3184 17.2281 71.2206 18.0652 70.3989 19.1352C69.5519 20.2649 69.1118 21.6373 69.1475 23.0377C69.1369 24.2907 69.4619 25.5246 70.0902 26.6168C70.7173 27.7162 71.645 28.6233 72.7694 29.2364C73.9762 29.8834 75.3351 30.2104 76.7111 30.1851C78.1506 30.1948 79.571 29.8638 80.8512 29.2202C82.0822 28.6127 83.1337 27.7072 83.9053 26.5898C84.6618 25.503 85.0636 24.2175 85.0575 22.9029C85.0582 21.6831 84.7292 20.4848 84.1038 19.4294C83.4784 18.374 82.5789 17.4989 81.4962 16.8928V16.9036ZM73.1829 25.8729C72.73 24.7343 72.5072 23.5207 72.5269 22.2992C72.5269 20.6282 72.8852 19.3184 73.5964 18.4021C73.945 17.9547 74.401 17.5981 74.9241 17.364C75.4471 17.1299 76.0212 17.0255 76.5953 17.0599C77.5582 17.0416 78.5016 17.327 79.2856 17.8738C80.0724 18.4582 80.679 19.2434 81.0387 20.1431C81.4691 21.2212 81.6807 22.371 81.6616 23.5282C81.6867 24.5743 81.4993 25.6149 81.1103 26.5898C80.8057 27.3491 80.283 28.0061 79.6053 28.4818C78.9742 28.9094 78.2231 29.1354 77.4553 29.1286C76.5527 29.1278 75.6774 28.8255 74.9746 28.2715C74.1747 27.6374 73.5573 26.8108 73.1829 25.8729Z" fill="white"/>
<path d="M155.389 17.3188C155.422 17.2528 155.47 17.1951 155.529 17.1502C155.589 17.1053 155.658 17.0744 155.731 17.0601C156.092 16.9738 156.463 16.9376 156.834 16.9523C156.933 16.9409 157.025 16.8943 157.091 16.8213C157.158 16.7482 157.194 16.6539 157.194 16.5561C157.194 16.4583 157.158 16.364 157.091 16.2909C157.025 16.2179 156.933 16.1713 156.834 16.1599H155.527C154.756 16.1869 154.16 16.203 153.747 16.203C153.135 16.203 152.429 16.203 151.657 16.1599L150.5 16.1707C150.4 16.182 150.309 16.2287 150.242 16.3017C150.176 16.3747 150.139 16.4691 150.139 16.5669C150.139 16.6646 150.176 16.759 150.242 16.832C150.309 16.9051 150.4 16.9517 150.5 16.9631C150.893 16.9468 151.286 16.9849 151.668 17.0762C151.748 17.0942 151.822 17.1292 151.886 17.1786C151.95 17.228 152.002 17.2906 152.038 17.3619C152.131 17.6286 152.171 17.9106 152.153 18.192V22.2239H145.191V18.1866C145.17 17.9059 145.213 17.6241 145.318 17.3619C145.356 17.2893 145.41 17.2254 145.476 17.1744C145.541 17.1233 145.617 17.0862 145.698 17.0655C146.073 16.9749 146.459 16.9368 146.845 16.9523C146.878 16.9523 147.17 16.9523 147.17 16.5588C147.17 16.1653 146.878 16.1599 146.839 16.1599L145.538 16.1707C144.772 16.1976 144.088 16.2138 143.504 16.2138C143.074 16.2138 142.501 16.2138 141.789 16.1707H140.527C140.4 16.1707 140.185 16.2515 140.185 16.5696C140.178 16.6179 140.182 16.6671 140.195 16.714C140.209 16.7608 140.233 16.8043 140.266 16.8415C140.298 16.8787 140.338 16.9087 140.383 16.9297C140.428 16.9506 140.477 16.962 140.527 16.9631C140.885 16.9478 141.243 16.9823 141.591 17.0655C141.664 17.0832 141.732 17.1166 141.79 17.1632C141.848 17.2098 141.895 17.2685 141.927 17.335C142.023 17.5973 142.063 17.8763 142.043 18.1543V27.9645C142.062 28.2477 142.023 28.5318 141.927 28.7999C141.895 28.8661 141.849 28.9243 141.79 28.9701C141.732 29.0158 141.664 29.048 141.591 29.0641C141.229 29.1397 140.858 29.1705 140.488 29.1557C140.455 29.1557 140.163 29.1557 140.163 29.5546C140.163 29.9534 140.455 29.9481 140.488 29.9481C141.04 29.9481 141.464 29.9481 141.767 29.9481H143.509H145.522C145.847 29.9481 146.288 29.9481 146.834 29.9481C146.867 29.9481 147.159 29.9481 147.159 29.5546C147.159 29.1611 146.867 29.1557 146.834 29.1557C146.438 29.1679 146.042 29.1372 145.654 29.0641C145.577 29.0511 145.504 29.0203 145.442 28.9744C145.38 28.9285 145.329 28.8687 145.296 28.7999C145.203 28.5311 145.164 28.2476 145.18 27.9645V23.3504H152.153V27.9537C152.172 28.2387 152.133 28.5245 152.038 28.7945C152 28.8597 151.948 28.9163 151.886 28.9609C151.825 29.0054 151.754 29.0369 151.679 29.0533C151.291 29.1264 150.895 29.1571 150.5 29.1449C150.449 29.146 150.399 29.1575 150.353 29.1787C150.308 29.1999 150.267 29.2304 150.234 29.2681C150.202 29.3058 150.177 29.3498 150.163 29.3973C150.149 29.4449 150.145 29.4948 150.152 29.5438C150.145 29.5925 150.149 29.6422 150.163 29.6894C150.177 29.7367 150.202 29.7804 150.235 29.8177C150.267 29.855 150.308 29.8849 150.354 29.9056C150.4 29.9262 150.449 29.937 150.5 29.9373C150.985 29.9373 151.371 29.9373 151.641 29.9373H153.725H155.505C155.836 29.9373 156.272 29.9373 156.823 29.9373C156.873 29.937 156.923 29.9262 156.969 29.9056C157.014 29.8849 157.055 29.855 157.088 29.8177C157.121 29.7804 157.145 29.7367 157.159 29.6894C157.174 29.6422 157.177 29.5925 157.17 29.5438C157.177 29.4948 157.173 29.4449 157.159 29.3973C157.145 29.3498 157.121 29.3058 157.088 29.2681C157.055 29.2304 157.015 29.1999 156.969 29.1787C156.923 29.1575 156.873 29.146 156.823 29.1449C156.453 29.1602 156.082 29.1294 155.72 29.0533C155.649 29.0395 155.581 29.0087 155.525 28.9636C155.468 28.9185 155.423 28.8604 155.395 28.7945C155.308 28.5228 155.273 28.2379 155.29 27.9537V18.1435C155.27 17.865 155.304 17.5852 155.389 17.3188Z" fill="white"/>
<path d="M170.897 16.9036C169.667 16.238 168.279 15.9014 166.873 15.928C165.512 15.9275 164.164 16.1933 162.909 16.7095C161.639 17.2276 160.53 18.0643 159.695 19.1351C158.841 20.2619 158.394 21.6351 158.427 23.0377C158.42 24.2924 158.751 25.5268 159.387 26.6167C160.018 27.7166 160.95 28.6235 162.077 29.2364C163.305 29.8862 164.684 30.2131 166.079 30.1851C167.531 30.1954 168.964 29.8645 170.258 29.2202C171.502 28.6168 172.567 27.7111 173.351 26.5898C174.113 25.5051 174.519 24.2189 174.514 22.9029C174.508 21.6794 174.17 20.4793 173.535 19.4253C172.9 18.3712 171.99 17.501 170.897 16.9036ZM162.507 25.8729C162.048 24.7358 161.821 23.5216 161.84 22.2992C161.84 20.6282 162.204 19.3184 162.942 18.4075C163.297 17.9575 163.758 17.5994 164.287 17.3645C164.815 17.1295 165.395 17.025 165.975 17.0599C166.944 17.0349 167.897 17.3145 168.692 17.8577C169.498 18.4394 170.119 19.2316 170.484 20.1431C170.918 21.2203 171.132 22.3704 171.112 23.5282C171.14 24.5745 170.953 25.6157 170.561 26.5898C170.252 27.3499 169.726 28.0067 169.045 28.4818C168.395 28.9117 167.625 29.1374 166.84 29.1286C165.912 29.1377 165.009 28.8352 164.282 28.2715C163.489 27.6346 162.878 26.8084 162.507 25.8729Z" fill="white"/>
<path d="M188.671 15.5454C188.582 15.5372 188.492 15.5589 188.417 15.6069C188.342 15.6549 188.286 15.7263 188.257 15.8095C188.23 15.8903 188.164 15.9981 187.921 16.0628C187.52 16.1419 187.111 16.1744 186.703 16.1599H185.115C182.111 16.2407 179.547 16.203 177.54 16.1599C176.68 16.1599 176.493 16.0035 176.493 15.9604C176.481 15.8633 176.434 15.7737 176.359 15.7087C176.284 15.6437 176.188 15.6078 176.088 15.6078C175.988 15.6078 175.891 15.6437 175.817 15.7087C175.742 15.7737 175.694 15.8633 175.683 15.9604C175.683 16.4024 175.644 17.0762 175.572 17.9656C175.501 18.855 175.424 19.5826 175.357 20.1809C175.362 20.2734 175.403 20.3606 175.472 20.424C175.541 20.4874 175.632 20.522 175.727 20.5205C175.814 20.5343 175.903 20.519 175.98 20.4769C176.057 20.4348 176.118 20.3685 176.151 20.2887C176.918 18.2027 178.136 17.184 179.867 17.184C180.335 17.184 180.473 17.2918 180.512 17.3403C180.551 17.3888 180.661 17.5775 180.661 18.1434V27.9536C180.68 28.2338 180.638 28.5147 180.539 28.7783C180.5 28.8479 180.446 28.9081 180.38 28.9547C180.314 29.0013 180.239 29.0331 180.159 29.0478C179.773 29.1248 179.379 29.1573 178.985 29.1449C178.934 29.1459 178.884 29.1574 178.839 29.1786C178.793 29.1999 178.752 29.2303 178.72 29.268C178.687 29.3057 178.662 29.3498 178.648 29.3973C178.634 29.4448 178.631 29.4947 178.638 29.5437C178.63 29.5925 178.634 29.6421 178.648 29.6894C178.663 29.7366 178.687 29.7804 178.72 29.8176C178.753 29.8549 178.793 29.8849 178.839 29.9055C178.885 29.9261 178.935 29.9369 178.985 29.9372C179.564 29.9372 180.016 29.9372 180.335 29.9372H182.215H184.134C184.465 29.9372 184.911 29.9372 185.473 29.9372C185.523 29.9362 185.572 29.9248 185.617 29.9038C185.663 29.8829 185.703 29.8528 185.735 29.8156C185.767 29.7784 185.791 29.735 185.805 29.6881C185.819 29.6412 185.822 29.592 185.815 29.5437C185.822 29.4952 185.819 29.4457 185.805 29.3985C185.791 29.3514 185.767 29.3076 185.735 29.27C185.703 29.2324 185.663 29.2018 185.618 29.1803C185.573 29.1587 185.524 29.1466 185.473 29.1449C185.076 29.157 184.679 29.1263 184.288 29.0532C184.212 29.04 184.14 29.0098 184.078 28.9649C184.016 28.92 183.965 28.8617 183.93 28.7945C183.838 28.5238 183.8 28.2382 183.82 27.9536V18.1866C183.785 17.8993 183.838 17.6083 183.974 17.3511C184.029 17.2918 184.183 17.184 184.658 17.184C185.45 17.1595 186.223 17.4268 186.824 17.9332C187.482 18.5619 187.911 19.3833 188.048 20.2726C188.08 20.3494 188.136 20.414 188.209 20.4568C188.281 20.4995 188.366 20.5181 188.45 20.5097C188.498 20.515 188.547 20.5104 188.593 20.4965C188.64 20.4825 188.682 20.4594 188.719 20.4285C188.756 20.3977 188.786 20.3598 188.807 20.3172C188.828 20.2746 188.84 20.2282 188.842 20.1809C188.842 19.6096 188.869 18.8603 188.919 17.9494C188.969 17.0385 189.024 16.3323 189.073 15.9011C189.073 15.8513 189.062 15.8021 189.041 15.7567C189.02 15.7113 188.989 15.6706 188.952 15.6372C188.914 15.6038 188.869 15.5784 188.821 15.5626C188.773 15.5468 188.722 15.5409 188.671 15.5454Z" fill="white"/>
<path d="M201.543 26.0563C201.463 26.0129 201.374 25.9906 201.283 25.9916C201.205 25.9833 201.127 26.0019 201.061 26.0442C200.996 26.0866 200.948 26.1499 200.925 26.2234C200.672 27.02 200.147 27.7072 199.437 28.1692C198.599 28.6347 197.643 28.8572 196.68 28.8107H195.914C195.804 28.8218 195.692 28.8092 195.588 28.7738C195.483 28.7384 195.387 28.6811 195.308 28.6058C195.162 28.3893 195.096 28.1308 195.12 27.8728V23.3504H196.746C197.429 23.3068 198.108 23.4645 198.698 23.8032C198.892 23.9254 199.051 24.0951 199.158 24.2954C199.266 24.4957 199.318 24.7199 199.31 24.9459C199.31 24.9998 199.31 25.2585 199.723 25.2585C200.137 25.2585 200.142 24.9998 200.142 24.9459C200.142 24.6602 200.142 24.2721 200.093 23.7978V22.7898V20.8763C200.093 20.7523 200.01 20.5475 199.69 20.5475C199.37 20.5475 199.288 20.7523 199.288 20.8763C199.289 21.0737 199.234 21.2676 199.13 21.4367C199.026 21.6059 198.877 21.744 198.698 21.8357C198.101 22.1234 197.438 22.2552 196.774 22.2185H195.12V18.165C195.107 18.0484 195.121 17.9305 195.16 17.8196C195.199 17.7088 195.263 17.6077 195.346 17.5236C195.594 17.3609 195.892 17.2867 196.19 17.3134H196.89C197.651 17.2758 198.406 17.4637 199.056 17.8524C199.631 18.2674 200.039 18.8663 200.208 19.5449C200.243 19.6304 200.309 19.7001 200.394 19.74C200.479 19.78 200.576 19.7873 200.666 19.7605C200.991 19.7066 201.024 19.5126 201.024 19.4263L200.98 16.6126C200.981 16.5484 200.969 16.4847 200.943 16.4257C200.917 16.3667 200.878 16.3138 200.83 16.2704C200.781 16.2271 200.724 16.1943 200.661 16.1743C200.599 16.1544 200.533 16.1476 200.468 16.1545H190.611C190.511 16.1658 190.42 16.2124 190.353 16.2855C190.287 16.3585 190.25 16.4529 190.25 16.5506C190.25 16.6484 190.287 16.7428 190.353 16.8158C190.42 16.8889 190.511 16.9355 190.611 16.9468C190.941 16.9307 191.272 16.9652 191.592 17.0492C191.658 17.0663 191.719 17.0981 191.771 17.142C191.823 17.1859 191.863 17.2409 191.89 17.3026C191.967 17.5742 191.999 17.8564 191.983 18.1381V27.9482C192.001 28.2356 191.967 28.5238 191.884 28.7999C191.863 28.8605 191.827 28.9149 191.779 28.9582C191.73 29.0015 191.672 29.0323 191.608 29.0478C191.282 29.1246 190.946 29.1554 190.611 29.1395C190.56 29.1405 190.51 29.152 190.464 29.1733C190.419 29.1945 190.378 29.2249 190.345 29.2626C190.313 29.3003 190.288 29.3444 190.274 29.3919C190.26 29.4394 190.256 29.4893 190.263 29.5383C190.256 29.5871 190.26 29.6368 190.274 29.684C190.288 29.7312 190.313 29.775 190.346 29.8123C190.378 29.8495 190.419 29.8795 190.465 29.9001C190.511 29.9207 190.56 29.9316 190.611 29.9318H200.887C200.974 29.9404 201.062 29.931 201.146 29.904C201.23 29.8771 201.306 29.8333 201.372 29.7755C201.472 29.6558 201.523 29.5041 201.515 29.3497C201.524 28.3432 201.601 27.3384 201.747 26.342C201.745 26.2801 201.724 26.2201 201.688 26.1694C201.652 26.1186 201.601 26.0793 201.543 26.0563Z" fill="white"/>
<path d="M214.796 25.5658C214.725 25.524 214.643 25.5016 214.559 25.5011C214.477 25.4929 214.395 25.5148 214.329 25.5627C214.263 25.6105 214.217 25.6808 214.201 25.7598C213.942 26.6696 213.354 27.4567 212.547 27.9752C211.661 28.5432 210.619 28.8346 209.559 28.8107H208.771C208.506 28.8228 208.24 28.7974 207.982 28.7352C207.939 28.725 207.9 28.7043 207.867 28.6751C207.834 28.6459 207.809 28.6091 207.795 28.5681C207.734 28.3415 207.709 28.1068 207.723 27.8728V18.1704C207.705 17.8848 207.739 17.5984 207.823 17.3242C207.847 17.2611 207.886 17.2044 207.937 17.1585C207.988 17.1127 208.048 17.079 208.115 17.0601C208.435 16.9774 208.766 16.9429 209.096 16.9576C209.195 16.9463 209.287 16.8997 209.353 16.8266C209.42 16.7536 209.457 16.6592 209.457 16.5615C209.457 16.4637 209.42 16.3693 209.353 16.2963C209.287 16.2232 209.195 16.1766 209.096 16.1653H207.905C207.194 16.1922 206.61 16.2084 206.152 16.2084C205.695 16.2084 205.099 16.2084 204.388 16.1653H203.197C203.164 16.1653 202.872 16.1653 202.872 16.5642C202.872 16.963 203.164 16.9576 203.197 16.9576C203.528 16.9415 203.859 16.976 204.179 17.0601C204.247 17.0787 204.31 17.1121 204.364 17.1578C204.417 17.2035 204.459 17.2604 204.487 17.3242C204.578 17.5896 204.615 17.8696 204.598 18.1489V27.959C204.615 28.2436 204.577 28.5288 204.487 28.7999C204.462 28.8623 204.423 28.9181 204.372 28.963C204.322 29.0079 204.261 29.0406 204.195 29.0587C203.869 29.135 203.533 29.1658 203.197 29.1503C203.164 29.1503 202.872 29.1503 202.872 29.5492C202.872 29.948 203.164 29.9426 203.197 29.9426H214.173C214.337 29.9554 214.499 29.9051 214.625 29.8025C214.684 29.745 214.73 29.6758 214.76 29.5996C214.789 29.5233 214.802 29.4418 214.796 29.3605C214.796 28.4334 214.868 27.2637 215.006 25.8623C215.004 25.7983 214.983 25.7361 214.946 25.6835C214.909 25.6308 214.857 25.5899 214.796 25.5658Z" fill="white"/>
<path d="M123.592 2.11301C119.365 0.641995 114.902 -0.0737178 110.416 4.54928e-05C109.534 4.54928e-05 107.82 0.0341835 105.273 0.102459C103.167 0.210263 101.111 0.264166 99.1039 0.264166C97.7864 0.264166 95.9947 0.231824 93.7455 0.156361L89.8589 0.102459C89.7101 0.102459 89.6384 0.210263 89.6384 0.420481C89.6384 0.630699 89.7101 0.738503 89.8589 0.738503C90.9806 0.699992 92.1027 0.797764 93.1997 1.02957C93.5038 1.09222 93.7913 1.21612 94.0438 1.39337C94.2962 1.57062 94.5082 1.79735 94.6661 2.0591C94.984 2.79222 95.1237 3.58746 95.0741 4.38228V28.8484C95.1213 29.6519 94.9818 30.4553 94.6661 31.1985C94.5098 31.468 94.2942 31.7002 94.0348 31.8782C93.7755 32.0563 93.479 32.1758 93.1666 32.2281C92.0297 32.4398 90.8724 32.5284 89.7156 32.4922C89.6164 32.4922 89.5723 32.6 89.5723 32.8102C89.5723 33.0204 89.6164 33.1282 89.7156 33.1282C91.3695 33.1282 92.7036 33.1282 93.6848 33.0743L99.115 33.0204C100.537 33.0204 101.822 33.0204 102.974 33.0743C104.126 33.1282 105.091 33.1444 105.874 33.1821C108.024 33.2846 109.887 33.3385 111.453 33.3385C115.599 33.3767 119.714 32.6451 123.581 31.1824C127.012 29.9438 130.053 27.8497 132.401 25.1076C134.552 22.5602 135.711 19.3499 135.67 16.0467C135.672 13.0309 134.549 10.118 132.512 7.85357C130.409 5.43876 127.436 3.52524 123.592 2.11301ZM109.705 31.9047L109.253 32.0933C107.12 32.0071 105.615 31.7322 104.771 31.2525C103.746 30.6703 103.228 29.6731 103.228 28.2663V23.5498C105.338 22.4217 107.623 21.6388 109.992 21.2321C110.543 21.1458 112.974 21.0919 114.623 22.3478C115.068 22.6945 115.434 23.1299 115.694 23.6253C115.955 24.1207 116.104 24.6645 116.133 25.2208C116.486 29.1503 112.235 30.8751 109.705 31.9047ZM118.785 30.0397C116.95 31.1546 114.873 31.8323 112.721 32.0179C113.633 31.6084 114.506 31.1195 115.328 30.5571C119.788 27.5817 121.122 20.9572 118.184 16.3701C116.028 13.012 112.434 11.9771 109.198 11.4003C109.148 11.4003 104.909 10.7373 103.244 10.9745V4.50626C103.244 3.13175 103.795 2.23698 104.937 1.81115C106.078 1.38533 108.139 1.17511 111.177 1.17511C125.328 1.15894 130.141 22.9354 118.774 30.0397H118.785Z" fill="white"/>
<path d="M118.167 16.3376C116.012 12.9795 112.417 11.9392 109.181 11.3679C109.121 11.3679 103.305 10.3761 103.117 11.2601C103.117 11.3086 99.7654 23.4419 99.7654 23.4419L99.6221 24.1319L100.201 23.7114C102.312 22.1542 104.804 21.1672 107.428 20.8492C109.633 20.6067 112.792 20.9193 114.595 22.3154C115.041 22.6624 115.406 23.0979 115.668 23.5931C115.929 24.0883 116.08 24.632 116.111 25.1884C116.469 29.1178 112.219 30.8427 109.677 31.8722L109.066 32.1256C108.79 32.2387 108.691 32.3897 108.762 32.5783C108.834 32.767 109.032 32.7616 109.314 32.7616C110.171 32.6939 111.019 32.5404 111.844 32.3034C113.059 31.8586 114.21 31.2606 115.267 30.5247C119.771 27.5493 121.106 20.9193 118.167 16.3376Z" fill="url(#paint0_linear_122_1185)"/>
<path d="M93.3923 36.5132L94.969 39.6341L98.4917 40.1354L95.9392 42.5664L96.5457 45.9999L93.3923 44.3775L90.239 45.9999L90.8399 42.5664L88.293 40.1354L91.8157 39.6341L93.3923 36.5132Z" fill="white"/>
<path d="M105.934 36.5134L107.505 39.6344L111.034 40.1356L108.481 42.5666L109.082 46.0002L105.934 44.3777L102.781 46.0002L103.382 42.5666L100.835 40.1356L104.358 39.6344L105.934 36.5134Z" fill="white"/>
<path d="M118.398 36.5134L119.975 39.6344L123.498 40.1356L120.945 42.5666L121.552 46.0002L118.398 44.3777L115.245 46.0002L115.846 42.5666L113.299 40.1356L116.822 39.6344L118.398 36.5134Z" fill="white"/>
<path d="M131.465 36.5132L133.041 39.6341L136.564 40.1354L134.017 42.5664L134.618 45.9999L131.465 44.3775L128.311 45.9999L128.912 42.5664L126.365 40.1354L129.888 39.6341L131.465 36.5132Z" fill="white"/>
</g>
<defs>
<linearGradient id="paint0_linear_122_1185" x1="103.018" y1="19.313" x2="120.481" y2="26.6947" gradientUnits="userSpaceOnUse">
<stop stop-color="white"/>
<stop offset="0.97" stop-color="#1A3353" stop-opacity="0"/>
</linearGradient>
<clipPath id="clip0_122_1185">
<rect width="215" height="46" fill="white"/>
</clipPath>
</defs>
</svg>
