<svg width="245" height="52" viewBox="0 0 245 52" fill="none" xmlns="http://www.w3.org/2000/svg">
<g clip-path="url(#clip0_104_264)">
<path d="M12.5955 19.206C11.0797 18.5297 9.4266 18.1923 7.75833 18.2189C7.43795 18.2189 6.82231 18.2189 5.87372 18.2676C5.13872 18.3164 4.40372 18.3407 3.69385 18.3407C3.22897 18.3407 2.59449 18.3407 1.80923 18.292L0.420897 18.2798C0.307718 18.2926 0.203337 18.3453 0.127582 18.4279C0.0518269 18.5104 0.00997453 18.6171 0.00997453 18.7276C0.00997453 18.8382 0.0518269 18.9448 0.127582 19.0274C0.203337 19.11 0.307718 19.1627 0.420897 19.1755C0.787252 19.1562 1.15439 19.1953 1.50769 19.2913C1.58353 19.3135 1.65332 19.3518 1.71199 19.4035C1.77067 19.4551 1.81676 19.5188 1.84692 19.5898C1.94323 19.8913 1.98364 20.207 1.96628 20.5221V31.6119C1.98618 31.9336 1.94356 32.256 1.84064 32.5624C1.81321 32.6334 1.76867 32.697 1.71076 32.7479C1.65284 32.7987 1.58321 32.8354 1.50769 32.8549C1.13335 32.9405 0.748575 32.9754 0.364359 32.9585C0.326667 32.9585 0 32.9585 0 33.4094C0 33.8603 0.326667 33.8542 0.364359 33.8542C0.992564 33.8542 1.44487 33.8542 1.7841 33.8542H3.71897C4.22154 33.8542 4.68013 33.8542 5.08218 33.8542L6.11244 33.8969C6.87885 33.9456 7.55731 33.97 8.12269 33.97C9.6761 33.9843 11.211 33.6419 12.6018 32.9707C13.9405 32.3242 15.0704 31.3335 15.8685 30.1068C16.6853 28.827 17.1061 27.3466 17.0809 25.8415C17.1 24.4551 16.6909 23.0948 15.9062 21.9358C15.0796 20.7503 13.9349 19.8064 12.5955 19.206ZM5.50308 31.3377V20.5587C5.50308 19.8153 5.82346 19.663 5.93026 19.6142C6.59864 19.3852 7.30941 19.2959 8.0159 19.3522C8.99971 19.3397 9.958 19.656 10.7297 20.2479C11.5585 20.9084 12.1915 21.7705 12.5641 22.7462C13.0032 23.8917 13.2163 25.1071 13.1923 26.329C13.2426 27.5349 13.0284 28.7374 12.5641 29.857C12.1736 30.7498 11.5174 31.5093 10.6795 32.0384C9.8375 32.5332 8.86829 32.7867 7.88397 32.7696C6.67154 32.7696 6.16269 32.5868 5.9491 32.4345C5.79076 32.2988 5.6678 32.1287 5.59028 31.938C5.51275 31.7474 5.48287 31.5417 5.50308 31.3377Z" fill="#1A3353"/>
<path d="M36.995 18.2798H35.8076C35.1794 18.3103 34.702 18.3286 34.3565 18.3286C34.011 18.3286 33.5147 18.3286 32.9493 18.2798H31.8185C31.7809 18.2798 31.4479 18.2798 31.4479 18.7307C31.4479 19.1816 31.7809 19.1755 31.8185 19.1755C32.0771 19.1612 32.3353 19.2094 32.57 19.3157C32.8046 19.4221 33.0083 19.5833 33.1629 19.7849C33.5306 20.3256 33.711 20.9659 33.678 21.6128V28.5896L25.1282 19.6082C25.0088 19.4863 24.8078 19.2426 24.5 18.8831C24.3773 18.7292 24.2452 18.5827 24.1042 18.4443C23.9584 18.3216 23.7693 18.2582 23.5765 18.2676C23.2184 18.2676 22.9483 18.2676 22.6844 18.2676H20.693C20.2659 18.2676 19.9455 18.2676 19.7068 18.2676H18.6011C18.5634 18.2676 18.2305 18.2676 18.2305 18.7185C18.2305 19.1694 18.5634 19.1634 18.6011 19.1634C19.0161 19.1702 19.4225 19.2793 19.7821 19.4802C20.2431 19.7672 20.6652 20.1091 21.0385 20.4978V30.4968C21.0787 31.1557 20.8687 31.806 20.448 32.3248C20.2463 32.5344 19.9991 32.6979 19.7242 32.8033C19.4493 32.9087 19.1536 32.9534 18.8587 32.9341C18.8015 32.9362 18.7455 32.9498 18.6941 32.9742C18.6428 32.9985 18.5973 33.0331 18.5606 33.0756C18.5238 33.1181 18.4967 33.1676 18.481 33.2209C18.4653 33.2742 18.4612 33.3301 18.4692 33.3851C18.4612 33.4397 18.4652 33.4953 18.481 33.5483C18.4968 33.6013 18.524 33.6504 18.5608 33.6924C18.5976 33.7345 18.6432 33.7684 18.6945 33.7921C18.7459 33.8158 18.8018 33.8287 18.8587 33.8299C19.4303 33.8299 19.8638 33.8299 20.1151 33.8299H21.7296H23.1305C23.4006 33.8299 23.7587 33.8299 24.2801 33.8299C24.3178 33.8299 24.6444 33.8299 24.6444 33.3851C24.6444 32.9402 24.3178 32.9341 24.2801 32.9341C24.0206 32.9484 23.7615 32.9002 23.5259 32.7939C23.2903 32.6876 23.0854 32.5265 22.9294 32.3248C22.5611 31.7846 22.3826 31.1434 22.4206 30.4968V21.9663L34.2434 34.1955C34.304 34.2457 34.3763 34.2808 34.454 34.2978C34.5317 34.3147 34.6125 34.3131 34.6894 34.2929L35.0412 34.622V21.6372C35.0069 20.9875 35.1946 20.3449 35.5752 19.8092C35.7384 19.5996 35.9519 19.4318 36.1971 19.3203C36.4423 19.2088 36.7119 19.157 36.9824 19.1694C37.0201 19.1694 37.3468 19.1694 37.3468 18.7246C37.3468 18.2798 37.0641 18.2798 36.995 18.2798Z" fill="#1A3353"/>
<path d="M43.6858 19.602C43.7127 19.5277 43.7575 19.4607 43.8165 19.4067C43.8755 19.3526 43.947 19.313 44.025 19.2912C44.3808 19.1858 44.753 19.1425 45.1244 19.1633C45.2376 19.1505 45.3419 19.0978 45.4177 19.0152C45.4934 18.9326 45.5353 18.826 45.5353 18.7154C45.5353 18.6049 45.4934 18.4982 45.4177 18.4157C45.3419 18.3331 45.2376 18.2804 45.1244 18.2676H43.78C42.9822 18.298 42.31 18.3163 41.776 18.3163C41.2421 18.3163 40.6453 18.3163 39.8412 18.2676H38.4214C38.3586 18.2676 38.0508 18.2676 38.0508 18.7185C38.0508 19.1694 38.3837 19.1633 38.4214 19.1633C38.8023 19.1439 39.1839 19.183 39.5522 19.2791C39.6292 19.3005 39.7002 19.3385 39.76 19.3902C39.8198 19.4418 39.8669 19.5059 39.8977 19.5776C39.9973 19.8784 40.0378 20.1946 40.0171 20.5099V31.5997C40.0377 31.9209 39.9972 32.2431 39.8977 32.5502C39.8684 32.6211 39.8224 32.6844 39.7636 32.7352C39.7047 32.7859 39.6345 32.8227 39.5585 32.8427C39.1864 32.929 38.8036 32.9638 38.4214 32.9463C38.3837 32.9463 38.0508 32.9463 38.0508 33.3972C38.0508 33.8481 38.3586 33.842 38.4214 33.842C39.0496 33.842 39.4957 33.842 39.8412 33.842H41.7698H43.7486C44.0878 33.842 44.5464 33.842 45.1307 33.842C45.1875 33.8408 45.2434 33.828 45.2948 33.8043C45.3461 33.7806 45.3917 33.7466 45.4285 33.7046C45.4653 33.6625 45.4925 33.6134 45.5083 33.5604C45.5241 33.5074 45.5281 33.4518 45.5201 33.3972C45.5281 33.3423 45.5241 33.2863 45.5083 33.233C45.4926 33.1797 45.4655 33.1302 45.4288 33.0877C45.3921 33.0452 45.3466 33.0107 45.2952 32.9863C45.2438 32.9619 45.1878 32.9483 45.1307 32.9463C44.7422 32.9678 44.3526 32.9328 43.9748 32.8427C43.9031 32.8257 43.8369 32.7918 43.7821 32.744C43.7273 32.6961 43.6856 32.6358 43.6607 32.5685C43.5706 32.2534 43.5345 31.9261 43.5539 31.5997V20.5587C43.5438 20.2349 43.5884 19.9118 43.6858 19.602Z" fill="#1A3353"/>
<path d="M58.4229 19.267C57.101 18.4903 55.569 18.1167 54.0255 18.1946C53.5669 18.1946 53.1586 18.1946 52.8068 18.1946L51.9273 18.2433C51.3619 18.292 50.8719 18.3164 50.4636 18.3164C50.0553 18.3164 49.358 18.3164 48.579 18.2677H47.1844C47.0712 18.2805 46.9668 18.3332 46.891 18.4158C46.8153 18.4983 46.7734 18.605 46.7734 18.7155C46.7734 18.8261 46.8153 18.9327 46.891 19.0153C46.9668 19.0979 47.0712 19.1506 47.1844 19.1634C47.5569 19.1448 47.9301 19.1838 48.29 19.2792C48.3642 19.2993 48.4328 19.3356 48.4905 19.3852C48.5481 19.4348 48.5934 19.4965 48.623 19.5655C48.7117 19.8725 48.7478 20.1916 48.7297 20.51V31.5998C48.7465 31.9245 48.7083 32.2497 48.6167 32.5625C48.5932 32.6302 48.5528 32.6913 48.4991 32.7402C48.4454 32.7891 48.38 32.8244 48.3088 32.8428C47.941 32.929 47.5624 32.9638 47.1844 32.9464C47.1267 32.9475 47.0699 32.9606 47.0178 32.9846C46.9657 33.0086 46.9195 33.043 46.8821 33.0856C46.8447 33.1282 46.817 33.178 46.8009 33.2317C46.7848 33.2854 46.7806 33.3419 46.7886 33.3973C46.7805 33.4524 46.7847 33.5085 46.8009 33.5619C46.817 33.6153 46.8448 33.6648 46.8823 33.7069C46.9198 33.749 46.9661 33.7829 47.0182 33.8062C47.0703 33.8295 47.127 33.8418 47.1844 33.8421C47.8126 33.8421 48.2586 33.8421 48.6041 33.8421H50.4887H52.7628C53.1649 33.8421 53.7303 33.8421 54.4527 33.8421C54.5095 33.8409 54.5655 33.828 54.6168 33.8044C54.6682 33.7807 54.7138 33.7467 54.7506 33.7046C54.7874 33.6626 54.8146 33.6135 54.8304 33.5605C54.8462 33.5075 54.8502 33.4519 54.8422 33.3973C54.8501 33.3424 54.8461 33.2864 54.8304 33.2331C54.8146 33.1798 54.7875 33.1303 54.7508 33.0878C54.7141 33.0453 54.6686 33.0108 54.6172 32.9864C54.5659 32.962 54.5098 32.9484 54.4527 32.9464C53.932 32.9656 53.4109 32.9226 52.901 32.8184C52.7971 32.7992 52.6986 32.7589 52.612 32.7001C52.5254 32.6413 52.4526 32.5653 52.3985 32.4772C52.274 32.1693 52.2224 31.8382 52.2477 31.5084V20.5405C52.2477 19.8458 52.3671 19.596 52.4424 19.5107C52.5476 19.4319 52.6678 19.3741 52.7961 19.3406C52.9244 19.3071 53.0583 19.2987 53.19 19.3157C53.622 19.2844 54.0555 19.3506 54.4566 19.5092C54.8578 19.6678 55.2155 19.9144 55.5018 20.2297C56.0917 21.0202 56.3783 21.9858 56.3122 22.9595C56.3733 23.926 56.1159 24.8862 55.5772 25.7015C55.3833 25.9812 55.1215 26.2103 54.8147 26.3687C54.5079 26.527 54.1657 26.6097 53.8182 26.6094C53.5653 26.6111 53.3128 26.5886 53.0644 26.5423C53.0196 26.5209 52.9708 26.5085 52.9209 26.5059C52.8711 26.5032 52.8212 26.5104 52.7743 26.5269C52.7273 26.5434 52.6843 26.5689 52.6478 26.6019C52.6113 26.6349 52.582 26.6748 52.5618 26.719C52.5128 26.8071 52.4869 26.9054 52.4864 27.0054C52.4725 27.0962 52.4937 27.1887 52.5459 27.2651C52.5981 27.3416 52.6776 27.3967 52.7691 27.4198C53.1815 27.5085 53.6031 27.5515 54.0255 27.5477C54.9975 27.5438 55.9596 27.3576 56.8587 26.9993C57.7558 26.6508 58.5439 26.0817 59.1454 25.3481C59.7594 24.574 60.0809 23.619 60.0563 22.6426C60.1016 21.9918 59.9755 21.3404 59.6898 20.7499C59.404 20.1593 58.9681 19.649 58.4229 19.267Z" fill="#1A3353"/>
<path d="M79.3167 32.9463C78.575 32.9223 77.8594 32.6753 77.2688 32.2395C76.3285 31.5331 75.4842 30.7142 74.7559 29.8022C73.9016 28.7968 72.8336 27.4258 71.6149 25.7136C72.3233 25.3242 72.9413 24.7974 73.4304 24.1659C74.0262 23.4036 74.3464 22.472 74.3413 21.5154C74.3504 21.0114 74.2207 20.5142 73.9656 20.075C73.7105 19.6359 73.3393 19.2707 72.8902 19.0171C71.7074 18.3948 70.3704 18.1017 69.0267 18.1701C68.5995 18.1701 68.2163 18.1701 67.8708 18.1701L67.0102 18.2189C66.382 18.2676 65.7538 18.292 65.1758 18.292C64.7047 18.292 64.0702 18.292 63.2912 18.2433H61.8966C61.8589 18.2433 61.5322 18.2433 61.5322 18.6942C61.5322 19.1451 61.8589 19.139 61.8966 19.139C62.2691 19.1204 62.6423 19.1594 63.0022 19.2547C63.0765 19.2749 63.145 19.3112 63.2027 19.3608C63.2604 19.4104 63.3057 19.4721 63.3352 19.5411C63.4245 19.848 63.4606 20.1672 63.442 20.4856V31.5753C63.4626 31.8966 63.4221 32.2188 63.3226 32.5259C63.2956 32.5971 63.2512 32.661 63.1932 32.7119C63.1353 32.7628 63.0654 32.7994 62.9896 32.8184C62.624 32.9052 62.2474 32.9401 61.8714 32.922C61.8138 32.9231 61.757 32.9362 61.7049 32.9602C61.6528 32.9842 61.6065 33.0186 61.5691 33.0612C61.5318 33.1038 61.5041 33.1536 61.488 33.2073C61.4719 33.261 61.4677 33.3175 61.4757 33.3729C61.4676 33.428 61.4718 33.4841 61.4879 33.5375C61.5041 33.5909 61.5319 33.6404 61.5694 33.6825C61.6068 33.7246 61.6532 33.7585 61.7053 33.7818C61.7574 33.8051 61.8141 33.8174 61.8714 33.8177C62.4996 33.8177 62.9457 33.8177 63.2912 33.8177H65.1758H67.1547C67.4876 33.8177 67.9525 33.8177 68.5304 33.8177C68.5681 33.8177 68.9011 33.8177 68.9011 33.3729C68.9011 32.9281 68.5681 32.922 68.5304 32.922C68.1545 32.9401 67.7778 32.9052 67.4122 32.8184C67.3401 32.8025 67.2734 32.7689 67.2184 32.7209C67.1634 32.6729 67.122 32.6121 67.0981 32.5442C67.0044 32.2297 66.9662 31.9022 66.985 31.5753V26.6276H68.1158C68.2603 26.6276 68.4111 26.6276 68.5555 26.6276C69.9564 28.7724 71.1814 30.4907 72.1929 31.7338C73.7068 33.5983 74.2911 33.8481 74.668 33.8481H79.3293C79.367 33.8481 79.6936 33.8481 79.6936 33.4033C79.6936 32.9585 79.3544 32.9463 79.3167 32.9463ZM66.9725 20.5587C66.9533 20.3845 66.9732 20.2082 67.0306 20.0421C67.0881 19.876 67.1818 19.7238 67.3054 19.596C67.6943 19.3692 68.1477 19.2689 68.5995 19.3096C68.8911 19.2864 69.1843 19.3294 69.4558 19.4352C69.7273 19.5409 69.9697 19.7065 70.1638 19.9189C70.5344 20.3576 70.7229 21.2046 70.7229 22.4354C70.7879 23.25 70.5665 24.0619 70.0947 24.7387C69.8415 24.9834 69.5355 25.1704 69.1987 25.2863C68.8619 25.4022 68.5027 25.4441 68.1472 25.409C67.7444 25.4114 67.3418 25.3931 66.9411 25.3541L66.9725 20.5587Z" fill="#1A3353"/>
<path d="M92.868 19.1084C91.4842 18.3562 89.9185 17.9755 88.3324 18.0056C86.791 18.0021 85.2649 18.3027 83.847 18.8891C82.4095 19.4752 81.1585 20.4216 80.2223 21.6311C79.257 22.9081 78.7555 24.4596 78.7962 26.0426C78.7842 27.4591 79.1545 28.8539 79.8705 30.0885C80.585 31.3314 81.6422 32.3568 82.9235 33.0499C84.2987 33.7812 85.8472 34.151 87.4152 34.1223C89.0555 34.1333 90.6742 33.7591 92.133 33.0316C93.5358 32.3448 94.7339 31.3212 95.6133 30.0581C96.4754 28.8295 96.9331 27.3763 96.9262 25.8903C96.927 24.5114 96.5521 23.1568 95.8395 21.9637C95.1268 20.7706 94.1017 19.7814 92.868 19.0963V19.1084ZM83.3947 29.2477C82.8786 27.9606 82.6247 26.5886 82.6471 25.2078C82.6471 23.3189 83.0555 21.8382 83.8659 20.8024C84.2631 20.2966 84.7827 19.8936 85.3788 19.6289C85.9749 19.3643 86.629 19.2462 87.2833 19.2851C88.3805 19.2644 89.4555 19.587 90.3489 20.2052C91.2455 20.8658 91.9367 21.7534 92.3466 22.7705C92.8371 23.9892 93.0782 25.289 93.0565 26.5971C93.0851 27.7797 92.8716 28.956 92.4283 30.0581C92.0811 30.9164 91.4855 31.6591 90.7133 32.1968C89.9941 32.6802 89.1382 32.9357 88.2633 32.928C87.2347 32.9272 86.2372 32.5853 85.4364 31.9592C84.5249 31.2423 83.8213 30.3079 83.3947 29.2477Z" fill="#1A3353"/>
<path d="M177.072 19.5776C177.109 19.503 177.163 19.4377 177.231 19.387C177.299 19.3362 177.377 19.3014 177.461 19.2852C177.872 19.1877 178.295 19.1467 178.718 19.1633C178.831 19.1505 178.935 19.0978 179.011 19.0152C179.087 18.9326 179.129 18.826 179.129 18.7154C179.129 18.6049 179.087 18.4982 179.011 18.4157C178.935 18.3331 178.831 18.2804 178.718 18.2676H177.229C176.349 18.298 175.671 18.3163 175.2 18.3163C174.502 18.3163 173.698 18.3163 172.819 18.2676L171.5 18.2798C171.386 18.2926 171.282 18.3453 171.206 18.4279C171.13 18.5104 171.089 18.6171 171.089 18.7276C171.089 18.8381 171.13 18.9448 171.206 19.0274C171.282 19.1099 171.386 19.1626 171.5 19.1755C171.947 19.1571 172.396 19.2002 172.831 19.3034C172.922 19.3238 173.006 19.3633 173.079 19.4191C173.152 19.475 173.211 19.5457 173.252 19.6264C173.359 19.9278 173.404 20.2466 173.384 20.5647V25.1225H165.45V20.5587C165.426 20.2413 165.475 19.9228 165.594 19.6264C165.639 19.5443 165.7 19.4721 165.775 19.4144C165.849 19.3567 165.936 19.3147 166.028 19.2912C166.455 19.1888 166.895 19.1458 167.335 19.1633C167.372 19.1633 167.705 19.1633 167.705 18.7185C167.705 18.2737 167.372 18.2676 167.328 18.2676L165.846 18.2798C164.972 18.3102 164.194 18.3285 163.528 18.3285C163.038 18.3285 162.384 18.3285 161.574 18.2798H160.135C159.991 18.2798 159.746 18.3712 159.746 18.7307C159.738 18.7853 159.742 18.8409 159.758 18.8939C159.773 18.9469 159.801 18.996 159.837 19.038C159.874 19.0801 159.92 19.1141 159.971 19.1378C160.023 19.1614 160.078 19.1743 160.135 19.1755C160.543 19.1583 160.951 19.1972 161.348 19.2912C161.431 19.3113 161.508 19.349 161.575 19.4017C161.641 19.4544 161.694 19.5207 161.731 19.5959C161.84 19.8925 161.885 20.2078 161.863 20.5221V31.6118C161.884 31.9321 161.84 32.2532 161.731 32.5563C161.695 32.6311 161.641 32.6969 161.575 32.7486C161.509 32.8004 161.431 32.8367 161.348 32.8549C160.935 32.9404 160.513 32.9752 160.091 32.9585C160.054 32.9585 159.721 32.9585 159.721 33.4094C159.721 33.8603 160.054 33.8542 160.091 33.8542C160.72 33.8542 161.203 33.8542 161.549 33.8542H163.534H165.827C166.197 33.8542 166.7 33.8542 167.322 33.8542C167.36 33.8542 167.693 33.8542 167.693 33.4094C167.693 32.9646 167.36 32.9585 167.322 32.9585C166.871 32.9723 166.42 32.9375 165.978 32.8549C165.89 32.8402 165.807 32.8055 165.736 32.7535C165.665 32.7016 165.608 32.634 165.569 32.5563C165.464 32.2524 165.419 31.9319 165.437 31.6118V26.396H173.384V31.5997C173.406 31.9219 173.361 32.245 173.252 32.5502C173.209 32.6238 173.15 32.6879 173.08 32.7382C173.01 32.7886 172.929 32.8242 172.844 32.8427C172.401 32.9254 171.95 32.9601 171.5 32.9463C171.442 32.9475 171.385 32.9605 171.333 32.9845C171.281 33.0085 171.235 33.0429 171.197 33.0855C171.16 33.1281 171.132 33.1779 171.116 33.2316C171.1 33.2853 171.096 33.3418 171.104 33.3972C171.096 33.4523 171.1 33.5084 171.116 33.5618C171.132 33.6152 171.16 33.6647 171.197 33.7068C171.235 33.7489 171.281 33.7828 171.333 33.8061C171.386 33.8294 171.442 33.8417 171.5 33.842C172.052 33.842 172.492 33.842 172.8 33.842H175.175H177.204C177.581 33.842 178.077 33.842 178.705 33.842C178.762 33.8417 178.819 33.8294 178.871 33.8061C178.923 33.7828 178.97 33.7489 179.007 33.7068C179.045 33.6647 179.072 33.6152 179.089 33.5618C179.105 33.5084 179.109 33.4523 179.101 33.3972C179.109 33.3418 179.105 33.2853 179.089 33.2316C179.072 33.1779 179.045 33.1281 179.007 33.0855C178.97 33.0429 178.924 33.0085 178.872 32.9845C178.819 32.9605 178.763 32.9475 178.705 32.9463C178.283 32.9635 177.861 32.9287 177.449 32.8427C177.367 32.8271 177.29 32.7923 177.226 32.7413C177.161 32.6903 177.11 32.6247 177.078 32.5502C176.979 32.243 176.939 31.9209 176.959 31.5997V20.5099C176.936 20.195 176.974 19.8788 177.072 19.5776Z" fill="#1A3353"/>
<path d="M194.743 19.1084C193.341 18.356 191.759 17.9756 190.157 18.0056C188.606 18.005 187.07 18.3054 185.641 18.8891C184.192 19.4748 182.929 20.4206 181.978 21.6311C181.004 22.9048 180.496 24.4571 180.533 26.0426C180.525 27.4609 180.902 28.8564 181.626 30.0885C182.346 31.3318 183.407 32.357 184.692 33.0498C186.091 33.7844 187.662 34.1539 189.253 34.1223C190.907 34.1339 192.54 33.7598 194.014 33.0316C195.432 32.3495 196.646 31.3256 197.539 30.0581C198.407 28.8319 198.87 27.378 198.864 25.8903C198.858 24.5072 198.473 23.1505 197.749 21.959C197.025 20.7675 195.988 19.7838 194.743 19.1084ZM185.182 29.2476C184.658 27.9623 184.4 26.5897 184.422 25.2078C184.422 23.3189 184.836 21.8382 185.678 20.8085C186.082 20.2998 186.608 19.895 187.21 19.6294C187.813 19.3638 188.473 19.2456 189.133 19.2851C190.239 19.2568 191.324 19.5729 192.23 20.1869C193.148 20.8446 193.856 21.7401 194.272 22.7705C194.767 23.9882 195.01 25.2883 194.988 26.5971C195.02 27.7799 194.806 28.9569 194.36 30.0581C194.008 30.9172 193.408 31.6598 192.632 32.1968C191.891 32.6828 191.014 32.9379 190.12 32.928C189.062 32.9383 188.033 32.5963 187.205 31.9592C186.301 31.2391 185.605 30.3052 185.182 29.2476Z" fill="#1A3353"/>
<path d="M214.997 17.5729C214.896 17.5637 214.794 17.5883 214.708 17.6425C214.622 17.6967 214.558 17.7774 214.526 17.8715C214.495 17.9629 214.419 18.0848 214.143 18.1579C213.686 18.2472 213.22 18.284 212.755 18.2676H210.945C207.522 18.359 204.601 18.3163 202.314 18.2676C201.334 18.2676 201.12 18.0909 201.12 18.0421C201.107 17.9323 201.053 17.8311 200.968 17.7576C200.882 17.6841 200.773 17.6435 200.659 17.6435C200.545 17.6435 200.435 17.6841 200.349 17.7576C200.264 17.8311 200.21 17.9323 200.197 18.0421C200.197 18.5418 200.153 19.3034 200.071 20.3088C199.99 21.3142 199.902 22.1368 199.826 22.8131C199.831 22.9177 199.878 23.0162 199.956 23.0879C200.035 23.1596 200.139 23.1987 200.247 23.197C200.346 23.2126 200.448 23.1953 200.536 23.1477C200.624 23.1001 200.692 23.0252 200.731 22.935C201.604 20.5769 202.992 19.4253 204.965 19.4253C205.499 19.4253 205.656 19.5472 205.7 19.602C205.744 19.6568 205.87 19.8701 205.87 20.5099V31.5996C205.891 31.9164 205.844 32.2339 205.731 32.5319C205.687 32.6105 205.625 32.6786 205.55 32.7313C205.475 32.7839 205.389 32.8199 205.298 32.8366C204.858 32.9236 204.409 32.9604 203.96 32.9463C203.902 32.9474 203.845 32.9605 203.793 32.9845C203.741 33.0085 203.695 33.0429 203.657 33.0855C203.62 33.1281 203.592 33.1779 203.576 33.2316C203.56 33.2853 203.556 33.3418 203.564 33.3972C203.556 33.4523 203.56 33.5084 203.576 33.5618C203.592 33.6152 203.62 33.6647 203.658 33.7068C203.695 33.7489 203.742 33.7828 203.794 33.8061C203.846 33.8294 203.902 33.8417 203.96 33.842C204.619 33.842 205.135 33.842 205.499 33.842H207.641H209.827C210.204 33.842 210.713 33.842 211.354 33.842C211.411 33.8408 211.467 33.8279 211.518 33.8043C211.569 33.7806 211.615 33.7466 211.652 33.7045C211.688 33.6625 211.716 33.6134 211.731 33.5604C211.747 33.5074 211.751 33.4518 211.743 33.3972C211.751 33.3423 211.747 33.2863 211.731 33.233C211.716 33.1797 211.689 33.1302 211.652 33.0877C211.615 33.0452 211.57 33.0106 211.518 32.9863C211.467 32.9619 211.411 32.9483 211.354 32.9463C210.901 32.96 210.448 32.9252 210.003 32.8427C209.916 32.8277 209.834 32.7935 209.764 32.7428C209.693 32.6921 209.635 32.6262 209.595 32.5502C209.49 32.2442 209.447 31.9214 209.469 31.5996V20.5586C209.429 20.2338 209.491 19.9049 209.645 19.6142C209.708 19.5472 209.884 19.4253 210.424 19.4253C211.327 19.3975 212.208 19.6998 212.893 20.2723C213.642 20.9829 214.132 21.9115 214.287 22.9167C214.324 23.0035 214.388 23.0766 214.471 23.125C214.553 23.1733 214.65 23.1943 214.746 23.1848C214.801 23.1907 214.856 23.1856 214.909 23.1698C214.962 23.154 215.011 23.1279 215.052 23.093C215.094 23.0582 215.128 23.0153 215.152 22.9672C215.176 22.919 215.19 22.8666 215.192 22.8131C215.192 22.1673 215.223 21.3203 215.28 20.2905C215.337 19.2608 215.399 18.4625 215.456 17.9751C215.455 17.9188 215.443 17.8632 215.419 17.8118C215.395 17.7605 215.36 17.7145 215.317 17.6767C215.274 17.6389 215.224 17.6102 215.169 17.5924C215.113 17.5745 215.055 17.5679 214.997 17.5729Z" fill="#1A3353"/>
<path d="M229.665 29.4548C229.575 29.4058 229.473 29.3806 229.37 29.3817C229.281 29.3723 229.191 29.3934 229.117 29.4412C229.042 29.4891 228.987 29.5607 228.962 29.6437C228.674 30.5443 228.075 31.3211 227.265 31.8434C226.311 32.3696 225.221 32.6211 224.124 32.5685H223.251C223.126 32.5811 222.999 32.5668 222.879 32.5268C222.76 32.4869 222.651 32.422 222.56 32.337C222.394 32.0922 222.319 31.8 222.347 31.5083V26.396H224.2C224.977 26.3467 225.752 26.525 226.424 26.9079C226.645 27.0461 226.826 27.2378 226.948 27.4643C227.071 27.6908 227.13 27.9442 227.121 28.1996C227.121 28.2606 227.121 28.553 227.592 28.553C228.063 28.553 228.069 28.2606 228.069 28.1996C228.069 27.8767 228.069 27.438 228.013 26.9018V25.7623V23.5992C228.013 23.4591 227.919 23.2275 227.554 23.2275C227.19 23.2275 227.096 23.4591 227.096 23.5992C227.097 23.8224 227.035 24.0415 226.916 24.2328C226.798 24.424 226.627 24.58 226.424 24.6838C225.743 25.0089 224.988 25.158 224.231 25.1164H222.347V20.5343C222.332 20.4025 222.347 20.2692 222.392 20.1439C222.436 20.0185 222.509 19.9043 222.604 19.8092C222.887 19.6253 223.226 19.5414 223.565 19.5716H224.363C225.23 19.5291 226.091 19.7414 226.832 20.1809C227.487 20.65 227.951 21.3271 228.145 22.0942C228.184 22.1909 228.26 22.2696 228.357 22.3147C228.453 22.3599 228.564 22.3682 228.666 22.3379C229.037 22.277 229.075 22.0576 229.075 21.9601L229.024 18.7794C229.026 18.7068 229.011 18.6348 228.981 18.5681C228.952 18.5014 228.908 18.4416 228.853 18.3926C228.797 18.3436 228.732 18.3066 228.661 18.284C228.59 18.2614 228.515 18.2537 228.44 18.2615H217.208C217.095 18.2743 216.99 18.327 216.914 18.4096C216.839 18.4922 216.797 18.5988 216.797 18.7094C216.797 18.8199 216.839 18.9266 216.914 19.0091C216.99 19.0917 217.095 19.1444 217.208 19.1572C217.584 19.1389 217.962 19.178 218.326 19.273C218.401 19.2923 218.471 19.3282 218.53 19.3779C218.589 19.4275 218.635 19.4896 218.665 19.5594C218.754 19.8664 218.79 20.1855 218.772 20.5038V31.5936C218.792 31.9184 218.754 32.2442 218.659 32.5563C218.635 32.6248 218.594 32.6863 218.539 32.7353C218.484 32.7842 218.417 32.8191 218.345 32.8366C217.973 32.9234 217.59 32.9582 217.208 32.9402C217.15 32.9414 217.093 32.9544 217.041 32.9784C216.989 33.0024 216.943 33.0368 216.905 33.0794C216.868 33.122 216.84 33.1718 216.824 33.2255C216.808 33.2793 216.804 33.3357 216.812 33.3911C216.804 33.4462 216.808 33.5023 216.824 33.5558C216.84 33.6092 216.868 33.6586 216.906 33.7007C216.943 33.7429 216.99 33.7767 217.042 33.8C217.094 33.8234 217.15 33.8356 217.208 33.8359H228.918C229.017 33.8456 229.118 33.8349 229.213 33.8045C229.309 33.774 229.396 33.7246 229.47 33.6592C229.584 33.5238 229.642 33.3524 229.634 33.1778C229.643 32.0401 229.732 30.9042 229.898 29.7778C229.895 29.7079 229.872 29.6401 229.831 29.5827C229.79 29.5253 229.732 29.4809 229.665 29.4548Z" fill="#1A3353"/>
<path d="M244.768 28.9004C244.686 28.8531 244.593 28.8278 244.498 28.8272C244.404 28.8179 244.311 28.8427 244.235 28.8968C244.16 28.9509 244.108 29.0304 244.089 29.1197C243.794 30.1482 243.125 31.0379 242.205 31.624C241.195 32.2661 240.007 32.5955 238.8 32.5685H237.901C237.599 32.5822 237.297 32.5534 237.003 32.4832C236.954 32.4716 236.909 32.4482 236.871 32.4152C236.834 32.3822 236.806 32.3406 236.79 32.2943C236.72 32.0382 236.692 31.7728 236.708 31.5083V20.5404C236.687 20.2175 236.726 19.8937 236.821 19.5837C236.849 19.5124 236.893 19.4483 236.951 19.3965C237.009 19.3447 237.078 19.3066 237.154 19.2852C237.518 19.1917 237.895 19.1527 238.272 19.1694C238.385 19.1566 238.49 19.1039 238.565 19.0213C238.641 18.9387 238.683 18.8321 238.683 18.7215C238.683 18.611 238.641 18.5043 238.565 18.4218C238.49 18.3392 238.385 18.2865 238.272 18.2737H236.915C236.105 18.3041 235.439 18.3224 234.918 18.3224C234.396 18.3224 233.718 18.3224 232.907 18.2737H231.55C231.513 18.2737 231.18 18.2737 231.18 18.7246C231.18 19.1755 231.513 19.1694 231.55 19.1694C231.927 19.1511 232.304 19.1902 232.669 19.2852C232.746 19.3062 232.819 19.344 232.879 19.3956C232.94 19.4473 232.988 19.5116 233.02 19.5837C233.123 19.8838 233.166 20.2003 233.146 20.516V31.6058C233.165 31.9274 233.123 32.2498 233.02 32.5563C232.992 32.6268 232.947 32.6899 232.889 32.7406C232.832 32.7914 232.762 32.8284 232.687 32.8488C232.315 32.9351 231.932 32.9699 231.55 32.9524C231.513 32.9524 231.18 32.9524 231.18 33.4033C231.18 33.8542 231.513 33.8481 231.55 33.8481H244.058C244.244 33.8626 244.429 33.8057 244.573 33.6897C244.64 33.6247 244.693 33.5465 244.726 33.4603C244.76 33.3741 244.774 33.282 244.768 33.19C244.768 32.142 244.849 30.8197 245.006 29.2355C245.005 29.1631 244.981 29.0929 244.939 29.0334C244.896 28.9738 244.837 28.9276 244.768 28.9004Z" fill="#1A3353"/>
<path d="M140.837 2.38855C136.02 0.72567 130.935 -0.0833969 125.823 -1.22623e-05C124.818 -1.22623e-05 122.864 0.0385785 119.962 0.11576C117.562 0.237625 115.219 0.298558 112.932 0.298558C111.431 0.298558 109.389 0.261999 106.826 0.176693L102.397 0.11576C102.227 0.11576 102.146 0.237625 102.146 0.475263C102.146 0.712901 102.227 0.834766 102.397 0.834766C103.675 0.791232 104.954 0.901756 106.204 1.1638C106.55 1.23462 106.878 1.37468 107.166 1.57505C107.453 1.77542 107.695 2.03172 107.875 2.32762C108.237 3.15636 108.396 4.05533 108.34 4.95382V32.6112C108.394 33.5194 108.235 34.4277 107.875 35.2679C107.697 35.5725 107.451 35.8349 107.156 36.0362C106.86 36.2375 106.522 36.3726 106.166 36.4317C104.871 36.671 103.552 36.7711 102.234 36.7302C102.121 36.7302 102.07 36.8521 102.07 37.0897C102.07 37.3274 102.121 37.4493 102.234 37.4493C104.118 37.4493 105.639 37.4493 106.757 37.3883L112.945 37.3274C114.565 37.3274 116.029 37.3274 117.342 37.3883C118.655 37.4493 119.754 37.4675 120.646 37.5102C123.096 37.626 125.22 37.6869 127.004 37.6869C131.728 37.7301 136.418 36.903 140.824 35.2496C144.735 33.8495 148.2 31.4822 150.876 28.3825C153.327 25.5027 154.647 21.8737 154.601 18.1397C154.602 14.7305 153.323 11.4377 151.001 8.87789C148.606 6.1481 145.218 3.98499 140.837 2.38855ZM125.012 36.0661L124.497 36.2793C122.066 36.1819 120.351 35.8711 119.39 35.3288C118.221 34.6707 117.631 33.5435 117.631 31.9531V26.6215C120.036 25.3462 122.64 24.4612 125.339 24.0014C125.967 23.9039 128.738 23.843 130.616 25.2627C131.124 25.6546 131.54 26.1468 131.837 26.7068C132.134 27.2668 132.304 27.8816 132.337 28.5104C132.739 32.9524 127.896 34.9023 125.012 36.0661ZM135.359 33.9578C133.268 35.2182 130.901 35.9843 128.449 36.194C129.488 35.7311 130.483 35.1785 131.42 34.5428C136.502 31.1793 138.022 23.6906 134.674 18.5053C132.218 14.7092 128.122 13.5392 124.434 12.8873C124.378 12.8873 119.547 12.1378 117.65 12.4059V5.09396C117.65 3.54018 118.278 2.5287 119.578 2.04733C120.879 1.56596 123.228 1.32832 126.69 1.32832C142.816 1.31004 148.3 25.9269 135.346 33.9578H135.359Z" fill="#1A3353"/>
<path d="M134.655 18.4687C132.199 14.6726 128.103 13.4966 124.416 12.8507C124.346 12.8507 117.719 11.7295 117.505 12.7288C117.505 12.7836 113.686 26.4996 113.686 26.4996L113.522 27.2795L114.182 26.8043C116.587 25.044 119.428 23.9281 122.418 23.5687C124.931 23.2945 128.53 23.648 130.585 25.2261C131.093 25.6184 131.509 26.1107 131.807 26.6705C132.105 27.2303 132.277 27.8449 132.312 28.4738C132.72 32.9158 127.877 34.8657 124.981 36.0295L124.284 36.3159C123.97 36.4438 123.856 36.6144 123.938 36.8277C124.02 37.041 124.246 37.0349 124.566 37.0349C125.543 36.9584 126.509 36.7848 127.45 36.517C128.835 36.0141 130.146 35.3381 131.351 34.5062C136.483 31.1427 138.004 23.648 134.655 18.4687Z" fill="url(#paint0_linear_104_264)"/>
<path d="M106.424 41.2759L108.221 44.8039L112.235 45.3706L109.326 48.1186L110.018 52L106.424 50.166L102.831 52L103.516 48.1186L100.613 45.3706L104.628 44.8039L106.424 41.2759Z" fill="#1A3353"/>
<path d="M120.716 41.2759L122.507 44.8039L126.527 45.3706L123.618 48.1186L124.303 52L120.716 50.166L117.123 52L117.808 48.1186L114.905 45.3706L118.92 44.8039L120.716 41.2759Z" fill="#1A3353"/>
<path d="M134.919 41.2759L136.716 44.8039L140.73 45.3706L137.822 48.1186L138.513 52L134.919 50.166L131.326 52L132.011 48.1186L129.108 45.3706L133.123 44.8039L134.919 41.2759Z" fill="#1A3353"/>
<path d="M149.808 41.2759L151.605 44.8039L155.619 45.3706L152.717 48.1186L153.401 52L149.808 50.166L146.215 52L146.899 48.1186L143.997 45.3706L148.011 44.8039L149.808 41.2759Z" fill="#1A3353"/>
</g>
<defs>
<linearGradient id="paint0_linear_104_264" x1="117.392" y1="21.8322" x2="137.243" y2="30.2908" gradientUnits="userSpaceOnUse">
<stop stop-color="white"/>
<stop offset="0.97" stop-color="#1A3353" stop-opacity="0"/>
</linearGradient>
<clipPath id="clip0_104_264">
<rect width="245" height="52" fill="white"/>
</clipPath>
</defs>
</svg>
